# xmcd
#
# Track frame offsets:
#	300
#	1441
#	14287
#	34649
#	56741
#	78034
#	93761
#	106256
#	122352
#	142378
#	165703
#	183860
#	197261
#	212739
#	224440
#
# Disc length: 3180 seconds
#
# Revision: 1
# Processed by: cddbd v1.5.2PL0 Copyright (c) Steve Scherf et al.
# Submitted via: audiograbber 1.83.01
#
DISCID=c00c680f
DTITLE=Audio88 and Yassin - Das Gleiche wie immer, bitte.
DYEAR=2010
DGENRE=Hip-Hop
TTITLE0=Das Gleiche wie immer, bitte.
TTITLE1=Gott trinkt (Hawak Remix)
TTITLE2=Nichts feat. Hiob (Dexter Remix)
TTITLE3=Ihr (Neo Judas Remix)
TTITLE4=Focusleser feat. Soda (DJ Phonatic Remix)
TTITLE5=Krieg ist cool (Maki Remix)
TTITLE6=Weltmusik (James Reindeer Remix)
TTITLE7=Kinderwunsch feat. Lunte (V.Raeter Remix)
TTITLE8=Gäste WC feat. Retrogott (Hulk Hodn Remix)
TTITLE9=Nichts feat. Hiob (V.Raeter Remix)
TTITLE10=Kinderwunsch feat. Lunte (Twit One Remix)
TTITLE11=Über Liebe (Suff Daddy Remix/ Cuts von DJ Breaque)
TTITLE12=Sandy und Justin (Oskar Ohlsen Remix/ Cuts von DJ Breaque)
TTITLE13=Zweite Weltmusik (The Beep Remix)
TTITLE14=Leg ein Feuer (Misanthrop Remix)
EXTD=
EXTT0=
EXTT1=
EXTT2=
EXTT3=
EXTT4=
EXTT5=
EXTT6=
EXTT7=
EXTT8=
EXTT9=
EXTT10=
EXTT11=
EXTT12=
EXTT13=
EXTT14=
PLAYORDER=
